<svg xmlns="http://www.w3.org/2000/svg" width="24.51" height="16.852" viewBox="0 0 24.51 16.852">
  <g>
    <path fill="none" stroke="rgb(112,136,158)" stroke-linecap="round" stroke-linejoin="miter" stroke-width="1" d="M2.35231505 14h12.3064187"/>
    <path fill="rgb(112,136,158)" fill-rule="evenodd" d="M23.13981404 0c.27614238 0 .5.22385763.5.5 0 .27614237-.22385762.5-.5.5H6.55025696c-.82842712 0-1.5.67157288-1.5 1.5v11.47808206c0 .27614238-.22385762.5-.5.5-.27614237 0-.5-.22385762-.5-.5V2.5c0-1.38071187 1.11928813-2.5 2.5-2.5h16.58955708z"/>
    <path fill="none" stroke="rgb(112,136,158)" stroke-linecap="round" stroke-linejoin="miter" stroke-width="1" d="M18.11915443 3.5h4.89119171c.55191503 0 1 .44808498 1 1v9c0 .55191502-.44808497 1-1 1h-4.8911917c-.55191503 0-1-.44808498-1-1v-9c0-.55191502.44808497-1 1-1z"/>
    <ellipse cx="20.565" cy="13" fill="rgb(112,136,158)" rx=".492" ry=".5"/>
  </g>
</svg>
