<svg xmlns="http://www.w3.org/2000/svg" xmlns:xlink="http://www.w3.org/1999/xlink" width="270.985" height="60.834" viewBox="0 0 270.985 60.834">
  <defs>
    <rect id="rect-2" width="23.814" height="23.8" x="4.927" y="4.934" rx="0" ry="0"/>
    <mask id="mask-3" maskContentUnits="userSpaceOnUse" maskUnits="userSpaceOnUse">
      <rect width="270.985" height="60.834" x="0" y="0" fill="black"/>
      <use fill="white" xlink:href="#rect-2"/>
    </mask>
  </defs>
  <g>
    <path fill="rgb(255,255,255)" fill-rule="evenodd" d="M22.52371146 32.25784086c-.75424958-.24723053-1.60903931-.41376495-2.5643921-.49959564 2.15416718-1.10112763 3.64871216-3.33398438 3.7182312-5.92409515.0304413.00883483.0607834.01774597.09102631.02674865 1.65984345.49397278 3.02674103 1.03733826 4.10075379 1.6301117l-2.19683075 6.07585907c-.9438324-.49397278-1.99341584-.93031311-3.14878845-1.30902863zm146.33337402-6.3475418h3.31965637v34.23229217h-3.31965637V43.69331144h-18.35574341v16.44927979h-3.31965637V25.91029905h3.31965637v14.86856842h18.3557434V25.91029905zm-37.2973175.5927658l-7.2739563 1.18553162v21.83358764c0 1.67951203.15458679 3.21081543.46377563 4.59394074.30918884 1.38313293.85432434 2.56041717 1.63542175 3.5318985.78109741.97149658 1.82254029 1.72891235 3.1243744 2.27227783 1.3018341.54336548 2.94537353.81506347 4.93066405.81506347 1.56221009 0 2.8802948-.13172912 3.95429993-.39518737 1.07402039-.263443 2.05036926-.57629395 2.92910767-.93855286l-1.025177-5.73007202c-.68347168.26345062-1.44013978.4692688-2.27006531.61746216-.82992554.14819336-1.63542176.22229004-2.41651917.22229004-1.62728882 0-2.70941162-.46103669-3.24642944-1.3831253-.53700256-.922081-.80549622-2.15700532-.80549622-3.70479585V40.2848947h8.73851014v-6.1252594h-8.73851014v-7.65657043zM8.78131032 27.88618254c.4526062-.37470246.94567108-.71286011 1.47919464-1.0144577.45310211 2.52973937 2.28227234 4.57720947 4.6734314 5.31869506-.19013977.07898712-.36149597.16732788-.5140915.26500702-.79737853.51044464-1.19606017 1.29255676-1.19606017 2.34637451 0 .6257019.14645385 1.15259552.4393692 1.58071137.29291534.42810821.70786285.81505584 1.24487305 1.16083526.53700256.34577942 1.15536499.65863037 1.85510253.93854523.69972992.27992249 1.47268677.56806946 2.31887818.86445618 1.75746918.65863037 3.28710174 1.309021 4.58893585 1.95118713 1.3018341.64216614 2.38396454 1.3913498 3.24642944 2.24757385.8624649.85622406 1.50523377 1.86062622 1.92832947 3.013237.4230957 1.15260315.63463593 2.55217743.63463593 4.19876099 0 3.19437408-1.10653687 5.67243957-3.31965637 7.4342804-2.21311188 1.76185607-5.54901124 2.64276123-10.00778199 2.64276123-1.49710846 0-2.84774017-.09056092-4.05193329-.27168274-1.20420074-.18112183-2.27005767-.40341187-3.19761657-.66687012-.92755127-.263443-1.72491455-.54336548-2.3921051-.8397522-.66718293-.29638672-1.22859192-.57629394-1.68423462-.8397522l2.14801025-6.1252594c1.0089264.55984498 2.25378418 1.06204224 3.73461914 1.50662232 1.48083496.44457245 3.29523468.66685486 5.4432602.66685486 1.07401275 0 1.96086883-.09056092 2.66060638-.27168274.69972992-.18112183 1.26113891-.42810822 1.68423462-.74095917.4230957-.31284332.71600341-.68332672.87873077-1.11143494.16272736-.42810821.24409485-.90561676.24409485-1.432518 0-1.11967468-.52072907-2.0499878-1.56219483-2.79094696-1.04146575-.74095917-2.83145904-1.53954315-5.37003326-2.39576721-1.10655212-.39517975-2.21309662-.84798432-3.31964874-1.35842133-1.10655976-.51044464-2.09918976-1.15260315-2.97792816-1.92649841-.8787384-.77388764-1.5947342-1.71243286-2.14801789-2.81564331-.55327606-1.10321045-.82991028-2.44515229-.82991028-4.02587128 0-1.580719.29290772-3.00499725.87873078-4.2728653.58582306-1.26786804 1.41573334-2.34635925 2.4897461-3.2355194zm82.74731446 6.32285308c-1.4320221-.49397277-3.22201539-.74095916-5.3700409-.74095916-.8461914 0-1.68423462.04116058-2.5141449.12348938-.82992553.08233642-1.61914062.18112945-2.36769104.29638672-.74856567.11526489-1.44015503.24698638-2.07479858.39517974-.63464355.14819336-1.16349792.28814698-1.58659363.4198761l.92755127 5.92766571c.8787384-.32931518 1.92018128-.58453369 3.12438965-.76565551 1.20419312-.18112183 2.42463684-.27168274 3.66137695-.27168274 1.8551178 0 3.15692139.37870788 3.9054718 1.13613891.74856568.7574234 1.12283326 1.76182556 1.12283326 3.01322937v.69155884c-.4556427-.1317215-1.04959107-.23875427-1.78187561-.32108307-.73228455-.0823288-1.57032776-.12348938-2.5141449-.12348938-1.3994751 0-2.75010681.13995361-4.05194092.4198761-1.3018341.27991486-2.45718384.73271942-3.46611023 1.35842133-1.00892639.6257019-1.8144226 1.46544647-2.41651916 2.51926422-.60209656 1.05381012-.90313721 2.33812713-.90313721 3.85298156 0 1.580719.26036072 2.91443634.78109741 4.00118256.5207367 1.08674622 1.26927185 1.96765137 2.24565125 2.64274597.97636413.67510987 2.13986206 1.1608429 3.49052429 1.45721436 1.35064697.29638672 2.85586548.44458008 4.5157013.44458008 2.6362152 0 4.88183593-.15641785 6.73695373-.4692688 1.85510254-.31285096 3.30337524-.5845337 4.34484863-.81506348V44.08848356c0-1.61364746-.17900085-3.0790863-.53701782-4.39635467-.35800171-1.31726838-.96821594-2.4369278-1.83068848-3.3590088-.86245727-.92208862-2.00968933-1.63011169-3.44169616-2.12408447zm-43.47285462 7.11320496c.60209656.98794556.9031372 2.6674347.9031372 5.03851318v13.78183747h7.2739563V45.96558164c0-.95502471-.03254699-1.8523941-.09764098-2.69215393-.06507874-.83975982-.2115326-1.63833618-.43936158-2.3957672.4556427-.29638673 1.0333252-.54336549 1.73304749-.74095918.69973755-.19758605 1.24487305-.29637908 1.63542175-.29637908 1.4645691 0 2.49787903.49396514 3.09997559 1.48191833.60209656.98794556.90315246 2.6674347.90315246 5.03851318v13.78183747h7.27394104V45.47160887c0-1.77831269-.14645385-3.39193726-.43936157-4.84093476-.29290771-1.44898987-.82991028-2.70037841-1.61100769-3.75418853-.78109741-1.05381012-1.83068848-1.86885834-3.14878845-2.44516755-1.31811524-.57630157-3.0023346-.86444854-5.05271912-.86444854-1.13909912 0-2.3839569.21405029-3.73461914.64216613-1.35064697.42810822-2.5466919 1.02087403-3.58815002 1.77829743-.74855042-.65863037-1.7005005-1.2266922-2.85588074-1.70420075-1.15538025-.47750854-2.66059875-.71626281-4.51570892-.71626281-.9438324 0-1.9039154.04116058-2.8802948.12348938-.97637177.08233642-1.92832184.19759369-2.85588074.34578704-.92755127.14819336-1.80627441.31284333-2.63619232.49397278-.82991791.18112183-1.55405426.35401154-2.17242432.51866913v25.0938034h7.2739563V40.08730864c.45563507-.06586456.92754364-.123497 1.41573334-.1728897.4881897-.04940033.96009063-.07409668 1.41573333-.07409668 1.46456147 0 2.49787903.49396514 3.0999756 1.48191833zm71.34820557-.64216614c-.65092469-.16465759-1.41574097-.3375473-2.29447937-.51866913-.8787384-.18112182-1.82254029-.27168273-2.83146668-.27168273-.4556427 0-1.0007782.04116058-1.63542175.12348937-.63464356.0823288-1.11468506.17288971-1.44013977.27168274v19.85769654h-7.2739563V35.5427606c1.3018341-.46104431 2.8395996-.89737701 4.61334229-1.30902863 1.77375793-.41164398 3.750885-.61746215 5.93144226-.61746215.3905487 0 .86245727.02469635 1.41574096.07409668.5532837.04940033 1.10655213.11525726 1.65983582.19758606.55326843.0823288 1.10653686.18112182 1.65982055.29638671.5532837.11525727 1.02519227.25521851 1.41574097.4198761l-1.22045898 6.07585907zm82.0394287 12.20111847c.56954957-1.64658356.8543396-3.47426605.8543396-5.48309326 0-2.00883484-.28479003-3.83651733-.8543396-5.4831009-.56954955-1.64658355-1.36691283-3.05438994-2.39208984-4.22346496-1.02520752-1.16906738-2.2375183-2.07467651-3.6369934-2.71684265-1.39944458-.64217377-2.94537354-.9632492-4.63775635-.9632492-1.69238281 0-3.23828125.32107543-4.63775635.9632492-1.39944458.64216614-2.61175537 1.54777527-3.63696289 2.71684265-1.02520752 1.16907502-1.82254028 2.57688141-2.39212036 4.22346497-.56954956 1.64658356-.85430908 3.47426605-.85430908 5.48310089 0 2.00882721.28475952 3.8365097.85430908 5.48309326.56958008 1.64657593 1.36691284 3.04615784 2.39212036 4.19876099 1.02520752 1.15260315 2.23751831 2.0499878 3.6369629 2.69215393 1.39947509.64216614 2.94537353.96324158 4.63775634.96324158 1.69238281 0 3.23831177-.32107544 4.63775635-.96324158 1.3994751-.64216614 2.61178588-1.53955078 3.6369934-2.69215393 1.025177-1.15260315 1.82254029-2.55218506 2.39208985-4.19876099zm48.35470582-5.53249359c0-2.239357.31732178-4.19052887.95196533-5.85357666.63464356-1.66304779 1.46453857-3.05438995 2.4897461-4.17406464 1.025177-1.11967468 2.19680786-1.95118713 3.51492309-2.49456024 1.31811523-.5433731 2.67687988-.81505584 4.07635498-.81505584 3.0918274 0 5.55715942 1.02086639 7.3959961 3.0626297 1.83883666 2.0417633 2.75823974 5.18669128 2.75823974 9.43487548 0 .26345063-.0081482.52690125-.02441406.79035187-.01626587.26345825-.04067993.51043701-.07324219.74095917H253.1665795c.09765625 3.12850952.86245727 5.53248596 2.2944641 7.21199798 1.43203736 1.67951966 3.71020509 2.5192566 6.83459473 2.5192566 1.72494507 0 3.0918274-.1646576 4.10073853-.49397278 1.00894165-.32931519 1.74121094-.60922241 2.19683838-.8397522l.58581543 2.76625061c-.45562744.26345825-1.30993652.57629395-2.56295776.93855286-1.25302125.36224365-2.7256775.54336548-4.4180603.54336548-2.21313477 0-4.10076905-.32931519-5.66296387-.98794556-1.56219483-.65863037-2.84771729-1.58070374-3.85665894-2.76625061-1.00891113-1.18553162-1.74118042-2.59334564-2.19680786-4.22346497-.45565796-1.6301117-.68347168-3.41662597-.68347168-5.35959625zM212.8669274 34.60421537c-1.5133667.32931519-2.74197388.62569428-3.68579102.88915253v24.64922333h3.17318726V37.7162454c.29293823-.13172912.9682312-.27992248 2.02597046-.44458008 1.05773925-.16465759 2.35144043-.24698639 3.881073-.24698639 1.36694335 0 2.46533203.20581818 3.29525756.6174698.82992554.41164397 1.47268677 1.02086639 1.92831421 1.82769775.45565796.80682373.75668335 1.82769012.9031372 3.0626297.14648438 1.23493194.21969605 2.69213867.21969605 4.3716507v13.23846435h3.17321778v-14.522789c0-1.18553925-.07324219-2.31343079-.21969605-3.38371277-.14645385-1.07028199-.3661499-2.03351593-.65905761-2.88974.16275024-.13172149.4312439-.32931518.80551147-.5927658.37426758-.26345062.85430908-.52690125 1.44015503-.7903595.58581543-.26345062 1.27740478-.48573303 2.07476807-.66686249.7973938-.18112182 1.68423461-.27168274 2.660614-.27168274 1.30184937 0 2.35955811.20581818 3.17318727.6174698.81365966.41164397 1.44015502 1.02086639 1.8795166 1.82769775.43939209.80682373.7322998 1.82769012.87875366 3.0626297.14645386 1.23493194.21966553 2.69213867.21966553 4.3716507v13.23846435h3.17321777V45.86678862c0-1.71244813-.11392212-3.29314423-.34173584-4.7421341-.22781372-1.4489975-.6671753-2.6921463-1.31811523-3.72949219-.65090943-1.03735351-1.5703125-1.84416198-2.75823975-2.42047119-1.18792725-.57630157-2.74194336-.86444855-4.66217041-.86444855-1.17163086 0-2.2374878.11525727-3.19760132.34577942-.960083.23052216-1.79812622.51043702-2.51416016.8397522-.71600341.32931519-1.30993652.65039826-1.78186035.9632492-.47192383.31285096-.7892456.53513337-.95196533.6668625-1.43200684-1.87710572-3.74273682-2.81564332-6.93222046-2.81564332-2.40838623 0-4.36923218.1646576-5.8826294.49397278zm52.99246216 4.4951477c1.17166137 1.48192597 1.79003906 3.55658723 1.85510253 6.22405244h-14.45025634c.065094-1.11967469.28475952-2.1899414.65905761-3.21082306.37426758-1.02088165.89498902-1.91825104 1.56219483-2.6921463.6671753-.77389527 1.4482727-1.39135743 2.34326172-1.85240174.89501953-.4610443 1.91207885-.69155883 3.05117798-.69155883 2.14801025 0 3.8078308.74095153 4.97946167 2.2228775zm-66.93014527 8.29873658c0-3.19436645-.73226929-5.73830414-2.19680786-7.63187408-1.4645691-1.89356995-3.4498291-2.84033966-5.95587158-2.84033966-2.50601196 0-4.49127197.9467697-5.95584107 2.84033966-1.46456909 1.89356994-2.19683837 4.43750763-2.19683837 7.63187408 0 3.19437408.73226928 5.73007202 2.19683837 7.60717773 1.4645691 1.87710572 3.4498291 2.81564332 5.95584107 2.81564332 2.50604248 0 4.49130249-.9385376 5.95587158-2.81564332 1.46453857-1.8771057 2.19680786-4.41280365 2.19680786-7.60717773zm-112.18484497 7.6071701c.71601868 0 1.39945984-.01646423 2.05038452-.0493927.65090943-.0329361 1.17163086-.0823288 1.56219483-.14819335v-5.5818863c-.29292298-.06586456-.73228455-.13172912-1.31809998-.19759368-.58583069-.06586457-1.12283325-.09879303-1.61100769-.09879303-.68347168 0-1.3262329.04116058-1.92834473.12348938-.60209655.08233642-1.13095092.23875427-1.58659362.46927642-.4556427.23052216-.81364441.54336548-1.07400513.93854523-.26036072.39518738-.3905487.88915253-.3905487 1.48191834 0 1.15261077.3824005 1.95119476 1.14723205 2.3957672.76483154.44458009 1.8144226.6668625 3.14878845.6668625z"/>
    <g>
      <use fill="none" transform="rotate(44.999887 16.83415007 16.83415007)" xlink:href="#rect-2"/>
      <g mask="url(#mask-3)" transform="rotate(44.999887 16.83415007 16.83415007)">
        <path fill="rgb(31,142,250)" fill-rule="evenodd" d="M-.17597269 25.33415007c0-9.38400269 7.6205368-17 17.01011658-17 9.3895874 0 17.0101242 7.61599731 17.0101242 17 0 6.29000091-3.41903686 11.76399993-8.50506591 14.70500183L23.63819815 37.09815c4.06541443-2.36299896 6.80404663-6.73200225 6.80404663-11.76399993 0-7.51399994-6.08963013-13.59999848-13.6081009-13.59999848-7.51847076 0-13.60809325 6.08599854-13.60809325 13.59999848 0 5.03199768 2.7386322 9.40100097 6.7870407 11.76399993l-1.70101165 2.9410019C3.24306418 37.09815-.17597269 31.62415098-.17597269 25.33415007zm27.21619415 0c0-5.6269989-4.57572174-10.19999695-10.20606994-10.19999695-5.6303482 0-10.20606995 4.57299804-10.20606995 10.19999695 0 3.77400207 2.05822754 7.0550003 5.10303498 8.82300567l1.70101165-2.95800018c-2.02420044-1.19000244-3.40202331-3.34899903-3.40202331-5.8650055 0-3.75699615 3.04481506-6.79999542 6.80404663-6.79999542 3.7592392 0 6.80404663 3.04299927 6.80404663 6.79999543 0 2.51600646-1.37781525 4.67500305-3.40202332 5.86500549l1.70101166 2.95800018c3.04481507-1.76800537 5.10303497-5.0490036 5.10303497-8.82300567zm-10.20606994-3.40000153c-1.87110901 0-3.40202332 1.52999878-3.40202332 3.40000153 0 1.86999511 1.53091431 3.40000152 3.40202332 3.40000152 1.87111664 0 3.40202331-1.5300064 3.40202331-3.40000152 0-1.87000275-1.53090667-3.40000153-3.40202331-3.40000153z"/>
      </g>
    </g>
  </g>
</svg>
