<svg xmlns="http://www.w3.org/2000/svg" width="23.856" height="24.705" viewBox="0 0 23.856 24.705">
  <g>
    <path fill="none" stroke="rgb(112,136,158)" stroke-linecap="round" stroke-linejoin="miter" stroke-width="1" d="M19.2449213 13.33231505c.03937824-.32.06891191-.64.06891191-.98 0-.34-.02953367-.66-.06891191-.98l2.07720207-1.65c.18704663-.15.23626943-.42.11813471-.64l-1.96891191-3.46c-.11813472-.22-.38393783-.3-.60051814-.22l-2.45129533 1c-.5119171-.4-1.06321244-.73-1.66373057-.98l-.37409327-2.65c-.02953368-.24-.23626943-.42-.48238342-.42H9.96150161c-.246114 0-.45284974.18-.48238342.42l-.37409327 2.65c-.60051813.25-1.15181347.59-1.66373057.98l-2.45129533-1c-.22642487-.09-.48238342 0-.60051814.22l-1.96891191 3.46c-.12797928.22-.06891192.49.11813471.64l2.07720207 1.65c-.03937824.32-.06891191.65-.06891191.98 0 .33.02953367.66.06891191.98l-2.07720207 1.65c-.18704663.15-.23626943.42-.11813471.64l1.96891191 3.46c.11813472.22.38393783.3.60051814.22l2.45129533-1c.5119171.4 1.06321244.73 1.66373057.98l.37409327 2.65c.02953368.24.23626943.42.48238342.42h3.93782383c.246114 0 .45284974-.18.48238342-.42l.37409327-2.65c.60051813-.25 1.15181347-.59 1.66373057-.98l2.45129533 1c.22642487.09.48238342 0 .60051814-.22l1.96891191-3.46c.11813472-.22.06891192-.49-.11813471-.64l-2.07720207-1.65h0z"/>
    <path fill="none" stroke="rgb(112,136,158)" stroke-linecap="round" stroke-linejoin="miter" stroke-width="1" d="M15.43041352 12.35231309c.00000107 1.9-1.56999806 3.44559674-3.49999806 3.44559782-1.93.00000108-3.50000087-1.54559389-3.50000194-3.44559389-.00000106-1.9 1.56999807-3.44559674 3.49999807-3.44559782"/>
  </g>
</svg>
